<?xml version="1.0" encoding="utf-8"?>
<!-- Generator: Adobe Illustrator 16.0.0, SVG Export Plug-In . SVG Version: 6.00 Build 0)  -->
<!DOCTYPE svg PUBLIC "-//W3C//DTD SVG 1.1//EN" "http://www.w3.org/Graphics/SVG/1.1/DTD/svg11.dtd">
<svg version="1.1" id="Layer_1" xmlns="http://www.w3.org/2000/svg" xmlns:xlink="http://www.w3.org/1999/xlink" x="0px" y="0px"
	 width="155.865px" height="70px" viewBox="0 0 155.865 70" enable-background="new 0 0 155.865 70" xml:space="preserve">
<g>
	<path fill="#00A3E4" d="M49.527,5.713c0-2.362-1.913-4.275-4.275-4.275c-2.36,0-4.275,1.913-4.275,4.275
		c0,2.361,1.915,4.275,4.275,4.275C47.614,9.988,49.527,8.074,49.527,5.713"/>
	<path fill="#00A3E4" d="M137.492,58.464c-10.129,0-18.37-9.166-18.37-20.435c0-11.267,8.241-20.432,18.37-20.432
		c10.131,0,18.373,9.165,18.373,20.432c0,2.361-1.914,4.273-4.275,4.273h-23.26c1.421,4.448,4.992,7.61,9.162,7.61
		c4.298,0,6.206-0.563,8.878-2.62c1.871-1.441,4.556-1.092,5.996,0.777c1.44,1.871,1.091,4.556-0.779,5.996
		C146.811,57.745,142.802,58.464,137.492,58.464 M128.33,33.754h18.327c-1.422-4.445-4.994-7.606-9.165-7.606
		C133.323,26.147,129.751,29.309,128.33,33.754"/>
	<path fill="#00A3E4" d="M108.119,58.464c-2.36,0-4.275-1.915-4.275-4.274V5.713c0-2.361,1.915-4.275,4.275-4.275
		c2.361,0,4.275,1.914,4.275,4.275v48.477C112.395,56.549,110.48,58.464,108.119,58.464"/>
	<path fill="#00A3E4" d="M45.252,58.464c-2.361,0-4.275-1.915-4.275-4.274V21.871c0-2.361,1.914-4.274,4.275-4.274
		s4.275,1.913,4.275,4.274v32.316C49.527,56.549,47.613,58.464,45.252,58.464"/>
	<path fill="#00A3E4" d="M33.415,51.659L20.86,34.55l9.655-9.655c1.67-1.669,1.67-4.376,0.001-6.046s-4.376-1.669-6.046,0
		L8.55,34.767V5.713c0-2.361-1.914-4.275-4.275-4.275C1.914,1.438,0,3.352,0,5.713v48.477c0,2.359,1.914,4.274,4.275,4.274
		c2.361,0,4.275-1.915,4.275-4.274v-7.33l6.193-6.192l11.778,16.051c0.837,1.144,2.135,1.747,3.45,1.747
		c0.878,0,1.764-0.27,2.526-0.828C34.401,56.238,34.812,53.562,33.415,51.659"/>
	<path fill="#00A3E4" d="M76.685,17.598c-11.267,0-20.432,9.165-20.432,20.431v26.259c0,2.36,1.914,4.274,4.275,4.274
		c2.361,0,4.276-1.914,4.276-4.274v-9.649c3.35,2.405,7.451,3.827,11.881,3.827c11.267,0,20.433-9.167,20.433-20.437
		C97.118,26.763,87.951,17.598,76.685,17.598 M76.685,49.914c-6.551,0-11.881-5.331-11.881-11.885
		c0-6.552,5.33-11.882,11.881-11.882c6.552,0,11.882,5.33,11.882,11.882C88.567,44.583,83.237,49.914,76.685,49.914"/>
</g>
</svg>
